<?xml version="1.0" ?><svg height="24" id="svg958" version="1.1" viewBox="0 0 6.3499999 6.3500002" width="24" xmlns="http://www.w3.org/2000/svg" xmlns:cc="http://creativecommons.org/ns#" xmlns:dc="http://purl.org/dc/elements/1.1/" xmlns:inkscape="http://www.inkscape.org/namespaces/inkscape" xmlns:rdf="http://www.w3.org/1999/02/22-rdf-syntax-ns#" xmlns:sodipodi="http://sodipodi.sourceforge.net/DTD/sodipodi-0.dtd" xmlns:svg="http://www.w3.org/2000/svg"><defs id="defs952"/><g id="layer1"><path d="M 4.4983026,0.52916861 C 4.3521615,0.52859661 4.2332295,0.6466046 4.2326596,0.79274362 V 1.7441996 l -0.290966,0.290967 c -0.3583742,-0.27919 -0.8072371,-0.447045 -1.2951371,-0.447045 -1.165983,0 -2.11738996,0.951408 -2.11738996,2.1173901 0,1.1659819 0.95140696,2.1153218 2.11738996,2.1153218 1.165981,0 2.1153219,-0.9493399 2.1153219,-2.1153218 0,-0.4880552 -0.1680919,-0.9373442 -0.4470448,-1.2961711 l 0.2920008,-0.292001 h 0.9504219 c 0.1461403,-5.7e-4 0.2641471,-0.119503 0.2635751,-0.265642 -5.67e-4,-0.145333 -0.1182421,-0.263009 -0.2635751,-0.263576 H 5.1365686 L 5.7448594,0.98034762 c 0.1466289,-0.185019 0.07697,-0.45117901 -0.1974231,-0.45117201 -0.06701,0.0025 -0.1305509,0.03043 -0.1777838,0.07803 L 4.7618784,1.2149786 V 0.79274362 C 4.7613114,0.6474106 4.6436355,0.52973461 4.4983026,0.52916861 Z M 2.6465565,2.1173396 c 0.343823,0 0.6604199,0.109341 0.9194129,0.293551 L 3.1799076,2.7969515 C 3.0225145,2.7038215 2.8413735,2.6465586 2.6465565,2.6465586 c -0.581425,0 -1.058437,0.4775289 -1.058437,1.0589531 0,0.5814229 0.477012,1.0563677 1.058437,1.0563677 0.581423,0 1.0589531,-0.4749448 1.0589531,-1.0563677 0,-0.195725 -0.058,-0.3775343 -0.1519442,-0.5354202 l 0.386061,-0.3855429 c 0.1841661,0.2594909 0.2930332,0.5768118 0.2930332,0.9209631 0,0.8799719 -0.706133,1.5861048 -1.5861031,1.5861048 -0.879972,0 -1.587655,-0.7061329 -1.587655,-1.5861048 -10e-7,-0.8799721 0.707683,-1.5881721 1.587655,-1.5881721 z m 0,1.058953 c 0.04724,0 0.09202,0.0074 0.135405,0.0186 l -0.323009,0.3230083 c -0.25389,0.248003 0.126088,0.611386 0.37314,0.3731408 l 0.324043,-0.3235248 c 0.01171,0.04418 0.02015,0.08977 0.02015,0.1379889 0,0.2954129 -0.2343221,0.5271501 -0.5297351,0.5271501 -0.295414,0 -0.529219,-0.2317372 -0.529219,-0.5271501 0,-0.2954139 0.233805,-0.529219 0.529219,-0.529219 z" id="path3557" style="color:#000000;font-style:normal;font-variant:normal;font-weight:normal;font-stretch:normal;font-size:medium;line-height:normal;font-family:sans-serif;font-variant-ligatures:normal;font-variant-position:normal;font-variant-caps:normal;font-variant-numeric:normal;font-variant-alternates:normal;font-variant-east-asian:normal;font-feature-settings:normal;font-variation-settings:normal;text-indent:0;text-align:start;text-decoration:none;text-decoration-line:none;text-decoration-style:solid;text-decoration-color:#000000;letter-spacing:normal;word-spacing:normal;text-transform:none;writing-mode:lr-tb;direction:ltr;text-orientation:mixed;dominant-baseline:auto;baseline-shift:baseline;text-anchor:start;white-space:normal;shape-padding:0;shape-margin:0;inline-size:0;clip-rule:nonzero;display:inline;overflow:visible;visibility:visible;opacity:1;isolation:auto;mix-blend-mode:normal;color-interpolation:sRGB;color-interpolation-filters:linearRGB;solid-color:#000000;solid-opacity:1;vector-effect:none;fill:#000000;fill-opacity:1;fill-rule:nonzero;stroke:none;stroke-width:0.529167;stroke-linecap:round;stroke-linejoin:round;stroke-miterlimit:4;stroke-dasharray:none;stroke-dashoffset:0;stroke-opacity:1;color-rendering:auto;image-rendering:auto;shape-rendering:auto;text-rendering:auto;enable-background:accumulate;stop-color:#000000;stop-opacity:1"/></g></svg>